<svg width="19" height="19" viewBox="0 0 19 19" fill="none" xmlns="http://www.w3.org/2000/svg">
<path d="M18.2416 13.2002C17.2399 15.5369 15.5377 17.2363 13.1827 18.2412C12.0057 18.7435 10.7831 19 9.49478 19C8.20676 19 6.98275 18.7459 5.80705 18.2412C3.47166 17.239 1.75145 15.5406 0.747954 13.2002C0.245106 12.0276 0 10.7992 0 9.51044C0 8.22145 0.245106 6.98283 0.747954 5.81002C1.75145 3.46956 3.47163 1.76104 5.80705 0.758554C6.98275 0.253876 8.20673 0 9.49478 0C10.7831 0 12.0057 0.256548 13.1827 0.758554C15.5377 1.7635 17.2399 3.47354 18.2416 5.81002C18.746 6.98658 19 8.22145 19 9.51044C19 10.7992 18.746 12.0236 18.2416 13.2002ZM6.33672 17.233C5.51605 16.1937 4.9137 14.8736 4.5292 13.2729H2.04644C2.96058 15.0504 4.49819 16.4744 6.33672 17.233ZM1.15307 9.51044C1.15307 10.4147 1.29846 11.2877 1.57902 12.1296H4.30071C4.16572 11.2462 4.10325 10.373 4.10325 9.51044C4.10325 8.65807 4.16575 7.79524 4.30071 6.91185H1.55819C1.28806 7.7538 1.15307 8.62679 1.15307 9.51044ZM2.04644 5.76855H4.52923C4.91374 4.13679 5.51612 2.79593 6.33675 1.76682C4.46692 2.54647 2.92935 3.97045 2.04644 5.76855ZM8.91305 1.24726C8.23777 1.44464 7.60416 1.94354 7.03286 2.75421C6.46152 3.56511 6.02517 4.57316 5.72397 5.76855H8.91305V1.24726ZM8.91305 6.91185H5.46421C5.32903 7.83696 5.25633 8.69976 5.25633 9.51044C5.25633 10.3834 5.329 11.2566 5.48504 12.1296H8.91302V6.91185H8.91305ZM8.91305 13.2729H5.72397C6.04597 14.4579 6.48477 15.4539 7.05369 16.256C7.62744 17.0651 8.2378 17.5656 8.91308 17.7527V13.2729H8.91305ZM16.9536 13.2729H14.4708C14.0865 14.8736 13.4839 16.1937 12.6633 17.2329C14.502 16.4744 16.0394 15.0504 16.9536 13.2729ZM10.087 17.7527C10.7622 17.5656 11.3726 17.0651 11.9463 16.256C12.5154 15.4539 12.954 14.4579 13.276 13.2729H10.087V17.7527ZM10.087 12.1296H13.5149C13.6709 11.2566 13.7436 10.3834 13.7436 9.51044C13.7436 8.69973 13.6709 7.83696 13.5358 6.91185H10.087V12.1296ZM10.087 1.24726V5.76855H13.276C12.9645 4.57316 12.5223 3.56912 11.9567 2.75421C11.3898 1.93732 10.7726 1.4342 10.087 1.24726ZM12.6633 1.76682C13.4839 2.79593 14.0865 4.13679 14.4708 5.76855H16.9536C16.0707 3.97045 14.533 2.54647 12.6633 1.76682ZM17.4418 6.91185H14.6993C14.8345 7.79527 14.8967 8.65807 14.8967 9.51044C14.8967 10.373 14.8345 11.2462 14.6993 12.1296H17.421C17.7015 11.2877 17.8469 10.4147 17.8469 9.51044C17.8469 8.62679 17.712 7.7538 17.4418 6.91185Z" fill="black"/>
</svg>
